/* XPM */
static char *_d15e4e7da3d41b493522b6215106e61NfPsHYfu2TpBWfMO[] = {
/* columns rows colors chars-per-pixel */
"64 64 237 2 ",
"   c None",
".  c #744A39",
"X  c #755849",
"o  c #6C5C53",
"O  c #6F544B",
"+  c #70705D",
"@  c #547265",
"#  c #696B68",
"$  c #627F79",
"%  c #7A7B66",
"&  c #A33D1F",
"*  c #9B352B",
"=  c #9B2D25",
"-  c #A33834",
";  c #A73726",
":  c #9C3713",
">  c #9A4115",
",  c #A64C17",
"<  c #AB5211",
"1  c #A8631B",
"2  c #BA6618",
"3  c #B67719",
"4  c #AE6F11",
"5  c #9A5828",
"6  c #904E2E",
"7  c #A6552A",
"8  c #A9463A",
"9  c #BC5A3A",
"0  c #AC5532",
"q  c #9A602F",
"w  c #AE6729",
"e  c #B36928",
"r  c #B97828",
"t  c #B97C3F",
"y  c #AF7038",
"u  c #996711",
"i  c #C16C18",
"p  c #C47915",
"a  c #CB7B1C",
"s  c #C77816",
"d  c #C36B2C",
"f  c #C1662F",
"g  c #C5742D",
"h  c #CA742D",
"j  c #CB792D",
"k  c #C97A28",
"l  c #D77D28",
"z  c #C66A38",
"x  c #C97B31",
"c  c #C57731",
"v  c #D47A37",
"b  c #B64943",
"n  c #B64A44",
"m  c #BA5643",
"M  c #8E704F",
"N  c #BB794A",
"B  c #B96B55",
"V  c #B97755",
"C  c #AC6B4D",
"Z  c #897A64",
"A  c #CC6D47",
"S  c #D57948",
"D  c #CB6957",
"F  c #C97659",
"G  c #D57654",
"H  c #D6785A",
"J  c #C47E4F",
"K  c #D46D61",
"L  c #DA7965",
"P  c #D17C72",
"I  c #E07A77",
"U  c #5F8F7A",
"Y  c #6B8478",
"T  c #76897C",
"R  c #988B03",
"E  c #B2901E",
"W  c #A1AF16",
"Q  c #B88039",
"!  c #B9A02E",
"~  c #CB831C",
"^  c #CB8317",
"/  c #D08213",
"(  c #CD8C24",
")  c #C98827",
"_  c #D48728",
"`  c #C99125",
"'  c #D79629",
"]  c #C7863A",
"[  c #D28B3B",
"{  c #D79637",
"}  c #E89B35",
"|  c #ED9A33",
" . c #D6AA38",
".. c #DBB12F",
"X. c #ECA332",
"o. c #ECA933",
"O. c #ECAD39",
"+. c #E6A538",
"@. c #F5AA3A",
"#. c #E7B639",
"$. c #F4B33C",
"%. c #FBB23E",
"&. c #E2A126",
"*. c #E0C73D",
"=. c #C7FE26",
"-. c #B48A4B",
";. c #BA934C",
":. c #AB8E53",
">. c #AE8C54",
",. c #BDA759",
"<. c #959769",
"1. c #928866",
"2. c #A98768",
"3. c #B68466",
"4. c #A59365",
"5. c #A69A75",
"6. c #BFB865",
"7. c #C6894A",
"8. c #D48A41",
"9. c #C99648",
"0. c #D49845",
"q. c #C78A56",
"w. c #D28B56",
"e. c #C89A55",
"r. c #D99059",
"t. c #E89548",
"y. c #F39944",
"u. c #EB8D59",
"i. c #EB9A54",
"p. c #F7985D",
"a. c #EA8F4F",
"s. c #D6A648",
"d. c #CDB74D",
"f. c #C8A859",
"g. c #D6A559",
"h. c #D3B55A",
"j. c #D0AC4D",
"k. c #E7AA48",
"l. c #F6A645",
"z. c #F6AD43",
"x. c #F6A34D",
"c. c #F7AC4C",
"v. c #F8AB43",
"b. c #E4B74A",
"n. c #F6B443",
"m. c #F9B544",
"M. c #FABA46",
"N. c #F6B54B",
"B. c #F8B54B",
"V. c #F7BB4B",
"C. c #F9BB4C",
"Z. c #F6B947",
"A. c #E5A75A",
"S. c #F7AD55",
"D. c #F9AC55",
"F. c #F8A55C",
"G. c #FAAC5B",
"H. c #F7A557",
"J. c #E4B453",
"K. c #E8BD58",
"L. c #F9B352",
"P. c #F9BC53",
"I. c #F7B654",
"U. c #D88467",
"Y. c #DF8377",
"T. c #D08C64",
"R. c #EA8867",
"E. c #EF9367",
"W. c #F69D63",
"Q. c #F99D6C",
"!. c #F89C65",
"~. c #E98575",
"^. c #F0867E",
"/. c #F89B74",
"(. c #F6947D",
"). c #F99D7B",
"_. c #F69A79",
"`. c #DBA462",
"'. c #DEAC65",
"]. c #DEB463",
"[. c #D3B864",
"{. c #F7A565",
"}. c #F9A563",
"|. c #F6A26C",
" X c #F9A46C",
".X c #FAAB65",
"XX c #E8BA64",
"oX c #FBBE64",
"OX c #FBBB6C",
"+X c #F9A274",
"@X c #FBAD7E",
"#X c #F9A679",
"$X c #FBB876",
"%X c #E5A764",
"&X c #DEC55B",
"*X c #E7C746",
"=X c #FDC24D",
"-X c #F5CC4B",
";X c #F2D24F",
":X c #EDC954",
">X c #F4C154",
",X c #FAC353",
"<X c #FAC55C",
"1X c #FBCC5C",
"2X c #FBCB58",
"3X c #FCD45B",
"4X c #FCDC5C",
"5X c #F8D354",
"6X c #EDD14E",
"7X c #D7F34C",
"8X c #FEE25D",
"9X c #D6C665",
"0X c #FACB64",
"qX c #FCC56B",
"wX c #FBCC6B",
"eX c #FBC666",
"rX c #FCD465",
"tX c #FCDA63",
"yX c #FCD36B",
"uX c #FED96B",
"iX c #FDCD73",
"pX c #FEDA72",
"aX c #E0C46F",
"sX c #FEE365",
"dX c #FEE369",
"fX c #FFED6B",
"gX c #FEEA65",
"hX c #FFF46D",
"jX c #ECE670",
"kX c #748D88",
"lX c #808E82",
"zX c #F99684",
"xX c #FA9C83",
"cX c #FA9889",
"vX c #F68986",
"bX c #FBA183",
"nX c #FCB581",
/* pixels */
"                                                                                                                                ",
"                                                                                                                                ",
"                                                                                                                                ",
"                                                                                                                                ",
"                                                                                                                                ",
"                                                                                                                                ",
"                                                      e ` ) 1 3 1                                                               ",
"                                                  e  . . .) 7 ) ' ` 1                                                           ",
"                                                ] b.*. .b.{ ] ( ' ....i                                                         ",
"                                            >  .&X .*X>XtX0.c ` ......&.~ >                                                     ",
"                                          < + 1.+ ,.<.<.f.X l O e.-.y ) M ) 1                                                   ",
"                                          s.d.s.h.1X9XJ.>Xr x r V.K.b.' E o.#.,                                                 ",
"                                        ] ;X:XrXrXrXgX1X1X' c ' >X5X4Xm.O.o.-X'                                                 ",
"                                      w :X:XtXyXrX1XsX>X,X_ c ( C.5X3XC.Z.O.6X#.k                                               ",
"                                      s.:XuXdXwX0X0XsX,X,X( j ( =X5X4XB.V.V.;X+.o.2                                             ",
"                                    y :XwXdXtX0X1X1X:Xk.N.) g ( V.J.>XC.V.C.8XO.O.'                                             ",
"                                     .0XyXdXuX0X0Xk.aXjXE i j ~ 9.jXd.+.C.V.8XZ.O.O.r                                           ",
"                                    :XyXyXdXtX0X1X0.7X=.R 2 ] p ! 7XW { =XV.4XV.z.$. .                                          ",
"                                  t 8XyXwXsXtX<X<XN.E R 4 p g ~ ` u 3 V.C.Z.8XZ.m.n.*X                                          ",
"                                  g.hXyXwXdXtX<XP.2XJ.2 ^ ^ g ~ V.[ k.C.Z.C.8Xm.n.Z.-Xe                                         ",
"                                  ].hX0XyXsXtX:X,X=X8Xk.$.p c ^ Z.3X4XZ.Z.M.4Xm.n.n.5Xg                                         ",
"                                  [.fXyXyXsXrXeX>X=X8XV.$.3 c ^ n.5X5Xm.Z.m.4Xm.$.z.8Xg                                         ",
"                                  ].hXwXyXtX3X>X,X>X8XM.$.p x ^ n.5X3Xn.m.m.4Xn.$.$.8Xg                                         ",
"                                  ].hXrXyXgXtX1X=X=X8XM.$.s x / $.5X4Xm.m.n.8X%.%.%.8Xg                                         ",
"                                  XX[.4.f.,.f.:.:.;.,.;. .6 k . 0.s.;.0.9.%.;.} { c 8Xg                                         ",
"                                  XX9Xf.g.h.h.e.;.0.j.;.+.5 j 1 +.h.s.9.] m.s.O.{ [ 8Xd                                         ",
"                                  h.hX4XrXgXtX2X=X=X8X=X@./ x / %.5X4X%.m.$.sXn.%.v.4Xg                                         ",
"                                  ].fX0X0XtX3XP.V.Z.4XZ.o.p j s } V.5Xn.n.n.3Xz.l.v.4Xd                                         ",
"                                  XXfX0X1XtX3X>XP.V.4XZ.o.s j p , 3 3X$.n.n.4Xz.l.z.4Xd                                         ",
"                                  ].fX1X0XtX3XP.V.V.4XN.o.s j p i 3 5Xz.$.l.4Xc.l.z.4Xd                                         ",
"                                  ].hX<X<XtX3XP.V.V.4Xm.X.s j p 2 2 -Xv.z.n.4Xc.x.c.4Xf                                         ",
"                                  ].fX<X<X3X3XI.P.N.4Xm.X.a j s 2 4 -Xv.z.c.4Xc.x.D.tXf                                         ",
"                                  ].fX>X,XrX3XI.I.B.4XB.| a h / i ` 5X@.l.c.tXD.x.D.rXf                                         ",
"                                  ].fX,XP.3X3XI.B.c.4XB.X.a l a X.3X3Xl.c.c.3XD.H.G.tXf                                         ",
"                                  ].fXP.P.rX1XL.L.L.4XB.X.k h a | ,X5Xl.c.D.tXG.F.G.tXf                                         ",
"                                  ].fXP.I.rX3XS.L.S.4Xc.| l h a | =X3Xx.H.H.tXF.W..XyXf                                         ",
"                                  ].fXP.L.0X1XS.S.S.tXc.| j h a | >X2Xx.D.H.rX}.!..XrX9                                         ",
"                                  ].hXP.L.3XrXG.G.L.tXL.l.l z _ | 2X3Xp.F.}.sX.XQ..XrX9                                         ",
"                                  XX9X9.A.h.h.e.w.H.h.0.[ e v q 8.e.e.q.q.p.>.E.N w.uX9                                         ",
"                                  XXf.7.9.:.f.C C i.;.J N 7 v 7 8.-.e.7.V E.-.W.F r.uX9                                         ",
"                                  ].hXI.S.1X0X}..X.XsXG.y.[ z _ y.eXrXW.}. XdX+X).$XrX9                                         ",
"                                  '.fXS.G.0X0X}.{..XtXF.t.v z h a.I.0X!.Q.+XuX#X_.#XwX9                                         ",
"                                  ].fXI.H.eXwXQ.{. XtX{.i.v v v a.oX0XQ.|.+XyX#X_.#XyXm                                         ",
"                                  '.fX.XF.0X0XQ. X XuX{.i.S A v a.oX0XQ./.).uX#X).@XyXn                                         ",
"                                  '.fXS.F.eXwXQ.+X XuX{.i.S A v a.OXwXQ./.).uXbXzX@XyXn                                         ",
"                                  '.dXS.}.eXqX/.+X+XuX{.p.S A S u.OXwX/.).).uXbXzX@XwXm                                         ",
"                                  '.dXS.W.eXwX/./.+XuX|.p.S A S u.OXwX_.).).uXbXcX@XwXn                                         ",
"                                  `.gXH.W.eXqX/.#X+XyX|.E.G D S R.OXwX(.).).pXbXcXbXiXn                                         ",
"                                  `.gXG.!.eXqX).).).uX+XE.G D G R.$XwX(.xXxXyXxXvXnXwXb                                         ",
"                                  `.dX7.H qXqX).).).uX/.E.G D S R.$XiXzXxXxXpXT.B @XwXb                                         ",
"                                  `.3X4.3.oXqX(.).).uX_.E.K D G R.$XiXcXxXxXuXT.2.+XwXb                                         ",
"                                  g.8X4.3.eXiXxXbXbXpX#X(.H D H ~.$XiXcXcXcX0X3.2.|.pXb                                         ",
"                                  %Xf.Y 2.e.g.~.T.U.g.U.F 0 K C F N %XB Y.P C >.Z !.g.-                                         ",
"                                  i.9.@ M N ;.K B U.g.F L D K m L U.;.C V P 1.+ # 2.M =                                         ",
"                                  # kXY Y 5.5.4.V (.pX#X(.L D L vXbX-.3.3.1.<.$ $ T Z =                                         ",
"                                  >.[.@ o N ;.F P xXpXbX(.K K L ^.nXiXvX^.^.B.Z # p.oXb                                         ",
"                                  w.=XU + | F.I ~.~.XXU.K D K D K `.A.I Y.vX9.T kXH `.-                                         ",
"                                  * > o . ; 7 - - - 7 - * * b * * 8 0 - - b , X O ; 8                                           ",
"                                                                                                                                ",
"                                                                                                                                ",
"                                                                                                                                ",
"                                                                                                                                ",
"                                                                                                                                ",
"                                                                                                                                "
};
