/* XPM */
static char *_789e380141044dee8cafb65189500b0XHg97ciY1FfR3iqc[] = {
/* columns rows colors chars-per-pixel */
"64 64 145 2 ",
"   c #D57F04",
".  c #FD6E00",
"X  c #E47C03",
"o  c #EA7B03",
"O  c #FE7601",
"+  c #FE7904",
"@  c #FB7B0A",
"#  c #FA7C14",
"$  c #338E00",
"%  c #359000",
"&  c #3C9402",
"*  c #389708",
"=  c #3D9A0D",
"-  c #409707",
";  c #439709",
":  c #4E970C",
">  c #45990D",
",  c #5D930A",
"<  c #479A11",
"1  c #4A9C12",
"2  c #4D9B18",
"3  c #529E1F",
"4  c #6E8D04",
"5  c #60930A",
"6  c #549E21",
"7  c #55A123",
"8  c #5EA42F",
"9  c #61A634",
"0  c #67A93A",
"q  c #72AF49",
"w  c #73B04A",
"e  c #7CB454",
"r  c #7FB75A",
"t  c #8D8B07",
"y  c #9A9018",
"u  c #FC810C",
"i  c #FC8612",
"p  c #FC8815",
"a  c #F9831C",
"s  c #F68F1E",
"d  c #FC8F1B",
"f  c #FB921C",
"g  c #F98623",
"h  c #F98A2A",
"j  c #FB9523",
"k  c #FB9825",
"l  c #FB9C29",
"z  c #F98E32",
"x  c #F7943D",
"c  c #F99239",
"v  c #F79D3D",
"b  c #FAA12F",
"n  c #FBA433",
"m  c #FBAB3A",
"M  c #F99740",
"N  c #F79946",
"B  c #F79D4D",
"V  c #F99D4D",
"C  c #F7A154",
"Z  c #F8A255",
"A  c #F7A55A",
"S  c #FAA55A",
"D  c #F4AE5E",
"F  c #F7A963",
"G  c #F9AB65",
"H  c #F8B06F",
"J  c #F7B77A",
"K  c #F9B77A",
"L  c #91C071",
"P  c #F9BB83",
"I  c #9ACD8B",
"U  c #B2D29B",
"Y  c #B7D5A2",
"T  c #F6C68C",
"R  c #F8C18F",
"E  c #F7C491",
"W  c #F9C494",
"Q  c #F7C89A",
"!  c #F8CA9D",
"~  c #DFD5AA",
"^  c #F9CEA5",
"/  c #F9D1AB",
"(  c #F9D5B3",
")  c #FAD7B8",
"_  c #F9DCBE",
"`  c #CEE3BF",
"'  c #FADDC2",
"]  c #D4E7CC",
"[  c #DBE9CD",
"{  c #FAE4CE",
"}  c #E1EED7",
"|  c #E1EED8",
" . c #FAE7D3",
".. c #FAE8D3",
"X. c #FBECDD",
"o. c #E5F0DC",
"O. c #FCEFE2",
"+. c #E7F1E0",
"@. c #EBF3E4",
"#. c #FBF0E3",
"$. c #F1F6EC",
"%. c #FCF6EE",
"&. c #F3F8EF",
"*. c #FCF7F0",
"=. c #FCF7F1",
"-. c #F5F9F1",
";. c #F6F9F3",
":. c #F7FAF4",
">. c #FCF9F4",
",. c #FCFAF6",
"<. c #FFFBF7",
"1. c #FDFAF6",
"2. c #FBFBFA",
"3. c #FAFCF8",
"4. c #FBFCF9",
"5. c #FDFCF8",
"6. c #FDFCF9",
"7. c #FCFCFA",
"8. c #FDFCFA",
"9. c #FCFDFA",
"0. c #FCFDFB",
"q. c #FEFCFB",
"w. c #FEFDFB",
"e. c #FCFDFC",
"r. c #FDFDFC",
"t. c #FDFDFD",
"y. c #FEFDFC",
"u. c #FFFDFC",
"i. c #FEFDFD",
"p. c #FFFDFD",
"a. c #FDFEFC",
"s. c #FDFEFD",
"d. c #FDFFFD",
"f. c #FEFEFD",
"g. c #FCFFFF",
"h. c #FDFFFF",
"j. c #FEFEFE",
"k. c #FFFEFE",
"l. c #FEFFFE",
"z. c #FFFFFE",
"x. c #FEFEFF",
"c. c #FFFEFF",
"v. c #FEFFFF",
"b. c #FFFEFFFF",
"n. c #FFFFFF",
/* pixels */
"b.b.b.b.b.b.b.b.b.b.b.b.b.b.b.b.b.b.b.b.b.b.b.b.b.b.b.b.b.b.b.b.b.b.b.b.b.b.b.b.b.b.b.b.b.b.b.b.b.b.b.b.b.b.b.b.b.b.b.b.b.b.b.b.",
"b.b.b.b.b.b.b.b.b.b.b.b.b.b.b.b.b.b.b.b.b.b.b.b.b.b.b.b.b.b.b.b.b.b.b.b.b.b.b.b.b.b.b.b.b.b.b.b.b.b.b.b.b.b.b.b.b.b.b.b.b.b.b.b.",
"b.b.b.b.b.b.b.b.b.b.b.b.b.b.b.b.b.b.b.b.b.b.b.b.b.b.b.b.b.b.b.b.b.b.b.b.b.b.b.b.b.b.b.b.b.b.b.b.b.b.b.b.2.b.b.b.b.b.b.b.b.b.b.b.",
"b.b.b.b.b.b.b.b.b.b.b.b.b.b.b.b.b.b.b.b.b.b.b.b.b.b.b.b.b.b.b.b.b.b.b.b.b.b.b.b.b.b.b.b.b.b.b.b.b.b.b.b.b.b.b.b.b.b.b.b.b.b.b.b.",
"b.b.b.b.b.b.b.b.b.b.b.b.b.b.b.b.b.b.b.b.b.b.b.b.b.b.b.b.b.b.b.b.b.b.b.b.b.b.b.b.b.b.2.b.0.2.b.b.e.b.b.2.b.b.b.b.b.b.b.b.b.b.b.b.",
"b.b.b.b.b.b.b.b.b.b.b.b.b.b.b.b.b.b.b.b.b.b.b.b.b.b.b.b.b.b.b.b.b.b.b.b.b.b.b.b.b.b.b.b.b.b.b.b.b.2.b.2.b.b.b.b.b.b.b.b.b.b.b.b.",
"b.b.b.b.b.b.b.b.b.b.b.b.b.b.b.b.b.b.b.b.b.b.b.b.b.b.b.b.b.b.b.b.b.b.b.b.b.b.b.b.b.b.b.b.@.Y o.b.2.b.b.b.2.b.b.b.b.b.b.b.b.b.b.b.",
"b.b.b.b.b.b.b.b.b.b.b.b.b.b.b.b.b.b.b.b.b.b.b.b.b.b.b.b.b.b.b.b.b.b.b.b.b.b.b.b.b.b.b.:.0 $ 6 +.-.L w ` b.b.e.b.b.b.b.b.b.b.b.b.",
"b.b.b.b.b.b.b.b.b.b.b.b.b.b.b.b.b.b.b.b.b.b.b.b.b.b.b.b.b.b.b.b.b.b.b.b.b.b.b.b.b.2.b.U $ 2 & r w $ % 8 2.b.e.b.b.b.b.b.b.b.b.b.",
"b.b.b.b.b.b.b.b.b.b.b.b.b.b.b.b.b.b.b.b.b.b.b.b.b.b.b.b.b.b.b.b.b.b.b.b.b.b.b.b.b.2.b.w & > > - & 1 > 2 @.b.e.b.b.b.b.b.b.b.b.b.",
"b.b.b.b.b.b.b.b.b.b.b.b.b.b.b.b.b.b.b.b.b.b.b.b.b.b.b.b.b.b.b.b.b.b.b.b.b.b.b.b.b.b.$.3 * > > > > < - 7 -.b.e.b.b.b.b.b.b.b.b.b.",
"b.b.b.b.b.b.b.b.b.b.b.b.b.b.b.b.b.b.b.b.b.b.b.b.b.b.b.b.b.b.b.b.b.b.b.b.b.b.b.b.b.b.| > > > > > > > & e 2.2.b.e.b.b.b.b.b.b.b.b.",
"b.b.b.b.b.b.b.b.b.b.b.b.b.b.b.b.b.b.b.b.b.b.b.b.b.b.b.b.b.b.b.b.b.b.b.b.b.b.b.b.2.b.[ ; > > > > > > > 7 6 q @.b.2.b.b.b.b.b.b.b.",
"b.b.b.b.b.b.b.b.b.b.b.b.b.b.b.b.b.b.b.b.b.b.b.b.b.b.b.b.b.b.b.b.b.b.b.b.b.q.b.q.8.b.] * > > > > > > > - > $ L b.2.b.b.b.b.b.b.b.",
"b.b.b.b.b.b.b.b.b.b.b.b.b.b.b.b.b.b.b.b.b.b.b.b.b.b.b.b.b.b.b.b.b.b.b.b.b.b.8.b.b.1.~ 4 : = > > - > > > < & q b.b.b.b.b.b.b.b.b.",
"b.b.b.b.b.b.b.b.b.b.b.b.b.b.b.b.b.b.b.b.b.b.b.b.b.b.b.b.b.b.b.b.b.b.b.b.b.8.b. .A a + O X t > = < > > > 1 % L b.2.b.b.b.b.b.b.b.",
"b.b.b.b.b.b.b.b.b.b.b.b.b.b.b.b.b.b.b.b.b.b.b.b.b.b.b.b.b.b.b.b.b.b.b.b.2.b./ @ . O O O O O u , = > > < & 3 o.b.e.b.b.b.b.b.b.b.",
"b.b.b.b.b.b.b.b.b.b.b.b.b.b.b.b.b.b.b.b.b.b.b.b.b.b.b.b.b.b.b.b.b.b.b.8.b.! O O + + O O O o o o , > < & 9 | b.b.b.b.b.b.b.b.b.b.",
"b.b.b.b.b.b.b.b.b.b.b.b.b.b.b.b.b.b.b.b.b.b.b.b.b.b.b.b.b.b.b.b.b.b.2.b._ O O O O O O O O O + O u ; % e $.b.2.b.b.b.b.b.b.b.b.b.",
"b.b.b.b.b.b.b.b.b.b.b.b.b.b.b.b.b.b.b.b.b.b.b.b.b.b.b.b.b.b.b.b.b.q.b.%.h . + O O O O O O O + O o y I 3.b.b.b.8.b.b.b.b.b.b.b.b.",
"b.b.b.b.b.b.b.b.b.b.b.b.b.b.b.b.b.b.b.b.b.b.b.b.b.b.b.b.b.b.b.q.b.q.b.F O O O O O O O + O O O + . A b.8.b.b.b.b.b.b.b.b.b.b.b.b.",
"b.b.b.b.b.b.b.b.b.b.b.b.b.b.b.b.b.b.b.b.b.b.b.b.b.b.b.b.b.b.b.b.2.b.( O + O O O O O + O + O O + . N b.0.0.b.b.b.b.b.b.b.b.b.b.b.",
"b.b.b.b.b.b.b.b.b.b.b.b.b.b.b.b.b.b.b.b.b.b.b.b.b.b.b.b.b.b.b.b.b.q.z . + O O + + O O + O + O + . B b.b.b.b.b.b.b.b.b.b.b.b.b.b.",
"b.b.b.b.b.b.b.b.b.b.b.b.b.b.b.b.b.b.b.b.b.b.b.b.b.b.b.b.b.b.b.8.b.W . + O O + O O + O O O O O + . G b.0.b.b.b.b.b.b.b.b.b.b.b.b.",
"b.b.b.b.b.b.b.b.b.b.b.b.b.b.b.b.b.b.b.b.b.b.b.b.b.b.b.b.b.q.b.b.*.g O O O O O O O O O O + O O + . P b.8.b.b.b.b.b.b.b.b.b.b.b.b.",
"b.b.b.b.b.b.b.b.b.b.b.b.b.b.b.b.b.b.b.b.b.b.b.b.b.b.b.b.b.b.8.b.R . + O O O O + O O O O + O O O O / b.8.q.b.b.b.b.b.b.b.b.b.b.b.",
"b.b.b.b.b.b.b.b.b.b.b.b.b.b.b.b.b.b.b.b.b.b.b.b.b.b.b.b.b.b.b.>.h O O O + O O O O O O O O + O O # O.b.b.b.b.b.b.b.b.b.b.b.b.b.b.",
"b.b.b.b.b.b.b.b.b.b.b.b.b.b.b.b.b.b.b.b.b.b.b.b.b.b.b.b.q.8.b.( . O O O O O O O O O O O + O + O B b.b.e.b.b.b.b.b.b.b.b.b.b.b.b.",
"b.b.b.b.b.b.b.b.b.b.b.b.b.b.b.b.b.b.b.b.b.b.b.b.b.b.b.b.b.8.q.Z . + O @ O O O O O O O O O O O . ( b.8.b.b.b.b.b.b.b.b.b.b.b.b.b.",
"b.b.b.b.b.b.b.b.b.b.b.b.b.b.b.b.b.b.b.b.b.b.b.b.b.b.b.0.q.b. .@ O O O k i O O O O d + O O O O c q.b.b.b.b.b.b.b.b.b.b.b.b.b.b.b.",
"b.b.b.b.b.b.b.b.b.b.b.b.b.b.b.b.b.b.b.b.b.b.b.b.b.b.b.b.q.b.G . + O O @ b O O + O j k . + + . / b.8.q.b.b.b.b.b.b.b.b.b.b.b.b.b.",
"b.b.b.b.b.b.b.b.b.b.b.b.b.b.b.b.b.b.b.b.b.b.b.b.b.b.b.b.b.X.@ O O O O O k l O O O . n i O . c b.b.b.b.b.b.b.b.b.b.b.b.b.b.b.b.b.",
"b.b.b.b.b.b.b.b.b.b.b.b.b.b.b.b.b.b.b.b.b.b.b.b.b.b.b.8.b.P . + O O + O O k @ O O O @ n f . / b.e.b.b.b.b.b.b.b.b.b.b.b.b.b.b.b.",
"b.b.b.b.b.b.b.b.b.b.b.b.b.b.b.b.b.b.b.b.b.b.b.b.b.b.q.b.>.g O + O O O O O O O O O O O + f F b.b.b.b.b.b.b.b.b.b.b.b.b.b.b.b.b.b.",
"b.b.b.b.b.b.b.b.b.b.b.b.b.b.b.b.b.b.b.b.b.b.b.b.b.b.b.b.^ . O O O + O O + O O O O O + O # X.e.e.b.b.b.b.b.b.b.b.b.b.b.b.b.b.b.b.",
"b.b.b.b.b.b.b.b.b.b.b.b.b.b.b.b.b.b.b.b.b.b.b.b.b.2.q.b.M O + O O O O + O + O O O O + . ! b.b.b.b.e.b.b.b.b.b.b.b.b.b.b.b.b.b.b.",
"b.b.b.b.b.b.b.b.b.b.b.b.b.b.b.b.b.b.b.b.b.b.b.e.b.q.b.{ O O O O O O O O O O + O O + . B e.8.b.e.b.b.b.b.b.b.b.b.b.b.b.b.b.b.b.b.",
"b.b.b.b.b.b.b.b.b.b.b.b.b.b.b.b.b.b.b.b.b.b.b.b.b.8.b.P . + O O u i O O O + + O + . a O.b.b.b.b.b.b.b.b.b.b.b.b.b.b.b.b.b.b.b.b.",
"b.b.b.b.b.b.b.b.b.b.b.b.b.b.b.b.b.b.b.b.b.b.b.b.q.b.b.c O O O O u l O O O + O O O O _ b.0.b.b.b.b.b.b.b.b.b.b.b.b.b.b.b.b.b.b.b.",
"b.b.b.b.b.b.b.b.b.b.b.b.b.b.b.b.b.b.b.b.b.b.b.b.q.q.{ O O O O O O l i O O O O + . E b.8.b.b.b.b.b.b.b.b.b.b.b.b.b.b.b.b.b.b.b.b.",
"b.b.b.b.b.b.b.b.b.b.b.b.b.b.b.b.b.b.b.b.b.b.b.b.q.b.T @ O O O O O @ b O O O + . G b.q.b.b.q.b.b.b.b.b.b.b.b.b.b.b.b.b.b.b.b.b.b.",
"b.b.b.b.b.b.b.b.b.b.b.b.b.b.b.b.b.b.b.b.b.b.b.b.q.>.v j O O O O O O d l . + O c 1.b.b.b.b.b.b.b.b.b.b.b.b.b.b.b.b.b.b.b.b.b.b.b.",
"b.b.b.b.b.b.b.b.b.b.b.b.b.b.b.b.b.b.b.b.b.b.b.2.b.) O n @ O O O O O O j l @ a O.b.q.b.q.b.b.b.b.b.b.b.b.b.b.b.b.b.b.b.b.b.b.b.b.",
"b.b.b.b.b.b.b.b.b.b.b.b.b.b.b.b.b.b.b.b.b.b.b.0.q.F . j n O O O O O O . d s ' b.8.b.b.b.b.b.b.b.b.b.b.b.b.b.b.b.b.b.b.b.b.b.b.b.",
"b.b.b.b.b.b.b.b.b.b.b.b.b.b.b.b.b.b.b.b.b.b.8.b.%.a O O m l O O O O O + . ! b.8.b.b.b.b.b.b.b.b.b.b.b.b.b.b.b.b.b.b.b.b.b.b.b.b.",
"b.b.b.b.b.b.b.b.b.b.b.b.b.b.b.b.b.b.b.b.b.b.8.b./ . O O O l @ O O O + . E b.8.b.b.b.b.b.b.b.b.b.b.b.b.b.b.b.b.b.b.b.b.b.b.b.b.b.",
"b.b.b.b.b.b.b.b.b.b.b.b.b.b.b.b.b.b.b.b.b.b.0.b.C . + O O O O O O O O J e.2.b.b.e.b.b.b.b.b.b.b.b.b.b.b.b.b.b.b.b.b.b.b.b.b.b.b.",
"b.b.b.b.b.b.b.b.b.b.b.b.b.b.b.b.b.b.b.b.b.b.b.#.i O O O O O O O @ . F b.b.b.b.b.b.b.b.b.b.b.b.b.b.b.b.b.b.b.b.b.b.b.b.b.b.b.b.b.",
"b.b.b.b.b.b.b.b.b.b.b.b.b.b.b.b.b.b.b.b.b.8.b.^ . + O O O O O + . B 2.b.0.b.b.b.b.b.b.b.b.b.b.b.b.b.b.b.b.b.b.b.b.b.b.b.b.b.b.b.",
"b.b.b.b.b.b.b.b.b.b.b.b.b.b.b.b.b.b.b.q.b.8.b.A . + O O O O + . A 0.b.b.b.b.b.b.b.b.b.b.b.b.b.b.b.b.b.b.b.b.b.b.b.b.b.b.b.b.b.b.",
"b.b.b.b.b.b.b.b.b.b.b.b.b.b.b.b.b.b.b.b.b.b.%.# O O O O O + . N 8.b.8.b.b.b.b.b.b.b.b.b.b.b.b.b.b.b.b.b.b.b.b.b.b.b.b.b.b.b.b.b.",
"b.b.b.b.b.b.b.b.b.b.b.b.b.b.b.b.b.b.b.b.8.b.( O + O O O + . x %.b.0.b.b.b.b.b.b.b.b.b.b.b.b.b.b.b.b.b.b.b.b.b.b.b.b.b.b.b.b.b.b.",
"b.b.b.b.b.b.b.b.b.b.b.b.b.b.b.b.b.b.b.b.0.b.H . @ O O + . N %.b.0.b.b.b.b.b.b.b.b.b.b.b.b.b.b.b.b.b.b.b.b.b.b.b.b.b.b.b.b.b.b.b.",
"b.b.b.b.b.b.b.b.b.b.b.b.b.b.b.b.b.b.b.0.b.e.z . O O O . Z 2.b.8.b.b.b.b.b.b.b.b.b.b.b.b.b.b.b.b.b.b.b.b.b.b.b.b.b.b.b.b.b.b.b.b.",
"b.b.b.b.b.b.b.b.b.b.b.b.b.b.b.b.b.b.b.b.b.X.@ O @ O O J 2.0.b.b.b.b.b.b.b.b.b.b.b.b.b.b.b.b.b.b.b.b.b.b.b.b.b.b.b.b.b.b.b.b.b.b.",
"b.b.b.b.b.b.b.b.b.b.b.b.b.b.b.b.b.b.b.0.b.! . O . h _ b.b.b.b.b.b.b.b.b.b.b.b.b.b.b.b.b.b.b.b.b.b.b.b.b.b.b.b.b.b.b.b.b.b.b.b.b.",
"b.b.b.b.b.b.b.b.b.b.b.b.b.b.b.b.b.b.b.8.b.Q . g K %.b.0.e.b.q.b.b.b.b.b.b.b.b.b.b.b.b.b.b.b.b.b.b.b.b.b.b.b.b.b.b.b.b.b.b.b.b.b.",
"b.b.b.b.b.b.b.b.b.b.b.b.b.b.b.b.b.b.b.b.b.1.{ %.b.b.0.0.b.b.b.b.b.b.b.b.b.b.b.b.b.b.b.b.b.b.b.b.b.b.b.b.b.b.b.b.b.b.b.b.b.b.b.b.",
"b.b.b.b.b.b.b.b.b.b.b.b.b.b.b.b.b.b.b.b.b.b.b.b.0.b.b.b.b.b.b.b.b.b.b.b.b.b.b.b.b.b.b.b.b.b.b.b.b.b.b.b.b.b.b.b.b.b.b.b.b.b.b.b.",
"b.b.b.b.b.b.b.b.b.b.b.b.b.b.b.b.b.b.b.b.b.q.8.b.0.b.b.b.b.b.b.b.b.b.b.b.b.b.b.b.b.b.b.b.b.b.b.b.b.b.b.b.b.b.b.b.b.b.b.b.b.b.b.b.",
"b.b.b.b.b.b.b.b.b.b.b.b.b.b.b.b.b.b.b.b.b.b.b.b.b.b.b.b.b.b.b.b.b.b.b.b.b.b.b.b.b.b.b.b.b.b.b.b.b.b.b.b.b.b.b.b.b.b.b.b.b.b.b.b.",
"b.b.b.b.b.b.b.b.b.b.b.b.b.b.b.b.b.b.b.b.b.b.b.b.b.b.b.b.b.b.b.b.b.b.b.b.b.b.b.b.b.b.b.b.b.b.b.b.b.b.b.b.b.b.b.b.b.b.b.b.b.b.b.b.",
"b.b.b.b.b.b.b.b.b.b.b.b.b.b.b.b.b.b.b.b.b.b.b.b.b.b.b.b.b.b.b.b.b.b.b.b.b.b.b.b.b.b.b.b.b.b.b.b.b.b.b.b.b.b.b.b.b.b.b.b.b.b.b.b.",
"b.b.b.b.b.b.b.b.b.b.b.b.b.b.b.b.b.b.b.b.b.b.b.b.b.b.b.b.b.b.b.b.b.b.b.b.b.b.b.b.b.b.b.b.b.b.b.b.b.b.b.b.b.b.b.b.b.b.b.b.b.b.b.b."
};
