/* XPM */
static char *_7480efbeaf6486af4fb416df81090da8eTEQXouVOOXHLkM[] = {
/* columns rows colors chars-per-pixel */
"64 64 192 2 ",
"   c None",
".  c #010101",
"X  c #0C0B03",
"o  c #0B0B0B",
"O  c #0F0003",
"+  c #140103",
"@  c #120F03",
"#  c #1B0000",
"$  c #151305",
"%  c #1B1604",
"&  c #1D1907",
"*  c #131313",
"=  c #1B1B1B",
"-  c #210103",
";  c #290009",
":  c #33020C",
">  c #3D000B",
",  c #370006",
"<  c #221D08",
"1  c #301E00",
"2  c #211719",
"3  c #311117",
"4  c #1B201E",
"5  c #25210A",
"6  c #2B260B",
"7  c #332303",
"8  c #342E0E",
"9  c #3D2500",
"0  c #3A330F",
"q  c #242424",
"w  c #2C2B2B",
"e  c #222E2B",
"r  c #333333",
"t  c #3B3B3B",
"y  c #37393A",
"u  c #3D2027",
"i  c #45000E",
"p  c #470105",
"a  c #430210",
"s  c #5C0114",
"d  c #550215",
"f  c #57000B",
"g  c #6A000E",
"h  c #650215",
"j  c #7E0010",
"k  c #720009",
"l  c #412900",
"z  c #463E13",
"x  c #503704",
"c  c #493436",
"v  c #5C353E",
"b  c #30423E",
"n  c #4D4314",
"m  c #554C17",
"M  c #5A4D15",
"N  c #5D5118",
"B  c #754E00",
"V  c #7A5200",
"C  c #62581A",
"Z  c #6B5D1C",
"A  c #61561A",
"S  c #6F641E",
"D  c #73651F",
"F  c #7D681C",
"G  c #7C6C21",
"H  c #7A7022",
"J  c #693541",
"K  c #324843",
"L  c #444444",
"P  c #4B4A4A",
"I  c #4C4042",
"U  c #51484A",
"Y  c #40504C",
"T  c #545554",
"R  c #5C5C5C",
"E  c #5F5457",
"W  c #52605C",
"Q  c #43605A",
"!  c #5F716D",
"~  c #566360",
"^  c #666666",
"/  c #6B6A6B",
"(  c #6E7775",
")  c #737373",
"_  c #7B7B7B",
"`  c #737877",
"'  c #6F6D6D",
"]  c #8B0013",
"[  c #89001E",
"{  c #970018",
"}  c #8A000C",
"|  c #940122",
" . c #980022",
".. c #860320",
"X. c #AC0127",
"o. c #A90226",
"O. c #B7012A",
"+. c #BE0D30",
"@. c #A61434",
"#. c #C9002D",
"$. c #D2012E",
"%. c #EA0135",
"&. c #E40235",
"*. c #F60137",
"=. c #F60338",
"-. c #FF013B",
";. c #F90037",
":. c #E80029",
">. c #BB7A00",
",. c #827223",
"<. c #8C7B25",
"1. c #8C7E2A",
"2. c #917F26",
"3. c #FF0642",
"4. c #C66278",
"5. c #BE8800",
"6. c #918127",
"7. c #948428",
"8. c #9C8A2B",
"9. c #9A8526",
"0. c #A28E2B",
"q. c #A5932D",
"w. c #AE992E",
"e. c #A89129",
"r. c #B49D2F",
"t. c #B39F32",
"y. c #B9A431",
"u. c #B5A732",
"i. c #CE8400",
"p. c #C4AB34",
"a. c #CAB336",
"s. c #C5B135",
"d. c #D3BA38",
"f. c #D5BA38",
"g. c #DDC33B",
"h. c #E4CC3D",
"j. c #EACD3E",
"k. c #E2C63C",
"l. c #EAD13F",
"z. c #DED440",
"x. c #F5D641",
"c. c #F5DA42",
"v. c #FBDB42",
"b. c #F8D741",
"n. c #EEDB43",
"m. c #FEE445",
"M. c #FFEB47",
"N. c #FFEE48",
"B. c #FFF44A",
"V. c #FFFB4C",
"C. c #52BFBC",
"Z. c #4DBDB9",
"A. c #56C0BD",
"S. c #5AC2BF",
"D. c #5FC3C0",
"F. c #61C4C1",
"G. c #6BC8C5",
"H. c #77CCC9",
"J. c gray51",
"K. c #8C8C8C",
"L. c #868888",
"P. c #929292",
"I. c #9B9A9A",
"U. c #9EA7A5",
"Y. c gray64",
"T. c #ACABAB",
"R. c #B4B4B4",
"E. c #BABABA",
"W. c #B8B5B6",
"Q. c #C0BFBF",
"!. c #81D0CD",
"~. c #8ED5D3",
"^. c #A4DDDB",
"/. c #ADE0DF",
"(. c #B5E3E2",
"). c #C4C4C4",
"_. c #CBCACA",
"`. c #C2CBC9",
"'. c #D4D4D4",
"]. c #DCDCDC",
"[. c #D8D6D7",
"{. c #E2DFE0",
"}. c #C6EAE9",
"|. c #D7F0EF",
" X c #DBF1F1",
".X c #E3E4E4",
"XX c #ECECEC",
"oX c #F1EFF0",
"OX c #E4F5F4",
"+X c #F4F4F4",
"@X c #F5FCFB",
"#X c #FEFEFE",
/* pixels */
"                                                  . .                                                                           ",
"                                                  . . . . .                                                                     ",
"                                                  . * q * . o                                                                   ",
"                                                    * = . . . .                                         .                       ",
"                                                    . . . o . .                                       . .                       ",
"                                                      . . * . . .                     .               . . .                     ",
"                                                          . * w .               . .   .               r * .                     ",
"                                                            . . . .       . . .   .   . .           . o w *                     ",
"                                                                . . . . . . * . ).T.=               . . t *                     ",
"                                                                    . . T ].+X.X#X#X#XXX            . . .                       ",
"                  .               . .                             . o E.#X#X#X#X#X#X#X#X.X. . .     * w *                       ",
"              . .   G . $ .         .                           . o ).#X#X#X#X#X#X#X#X#X+X).w .     * = o                       ",
"                  k.j.f.m.D .                                   . Y.#X#X#X#X#X#X#X#X#X#X#X#X+X    . . . .                       ",
"                H m.m.m.v.B.N . $                             . T #X+X#X#X#X#X#X#X#X#X#X#X#X'..   . * . .                       ",
"              . <.M.l.v.v.M.d.n 6.                            . _.#X#X#X#X#X#X#X#X#X#X#X#X#XXX* . . . .                         ",
"              0 M.v.v.m.s.8.m.d.a.                          . L #X#X#X#X#X#X#X#X#X#X#X#X#X#X#X_ . . . .                         ",
"              C N.v.v.N.g.t.m.M.d.X                         . E.#X#X#X#X#X#X#X#X#X#X#X#X#X#X#XXX* . .                           ",
"              ,.N.v.v.7.x <.m.m.a.. .                     . q #X#X#X#X#X#X#X#X#X#X#X#X#X#X#X#X#XR . .                 F.        ",
"              ,.B.2.e.>.9 H N.v.v.z .                     . _ #X#X#X#X#X#X#X#X#X#X#X#X#X#X#X#X#XI..               F.D.F.F.D.    ",
"              C B.p.M 1 <.m.v.c.M.y..                     . ).#X#X#X#X#X#X#X#X#X#X#X#X#X#X#X#X#XE..             F.D.F.S.S.F.D.  ",
"              @ f.B.u.u.M.v.v.v.m.s..                     * +X#X#X#X#X#X#X#X#X#X#X#X#X#X#X#X#X#X.X.           F.F.F.S.H.!.S.F.  ",
"                A m.m.m.v.v.v.x.N.G .                     R #X#X#X#X#X#X#X#X#X#X#X#X#X#X#X#X#X#XXXo           F.F.F.C.^.OXA.F.F.",
"                d.v.v.v.v.v.b.M.a..                       +X#X#X#X#X#X#X#X#X#X#X#X#X#X#X#X#X#X#XXX*           D.F.F.S.(.#X^.A.F.",
"                  g.m.v.v.v.M.c.8                     . E.#X#X#X#X#X#X#X#X#X#X#X#X#X#X#X#X#X#X#XXX.           F.D.S.C.}.@X@XG.S.",
"                  q.M.x.v.M.j.0                 .   . o ].#X#X#X_.R #X#X#X#X#X#X#X#X#X#X#X#X#X#X'..           D.D.^.(.}.H.@XH.D.",
"          .     . z M.B.m.r.$               . . q / . J.#X#X#X#XR . XX#X#X#X#X#X#X#X#X#X#X#X#X#XE..           A.~.#X#X}.Z.OXH.S.",
"                . . 0 Z 5 .                 . R.+X^.. _.#X#X#X#Xw r #X#X#X#X#X#X#X#X#X#X#X#X#X#X_ .           A.~.#X#X/./. XS.F.",
"        . .       . . .                     P #X+X_.. _.#X#X#X#XT.).#X#X#X#X#X#X#X#X#X#X#X#X#X#Xt .           D.F.}.|.G.~.G.D.  ",
"                                          . ) #X#XXX. T.#X#X#X#X#X#X#X#X#X#X#X#X#X#X#X#X#X#X#XXX*             F.D.A.S.D.S.D.D.  ",
"                                          . K.#X+X#Xq ^ #X#X#X#X#X#X#X#X+X#X#X#X#X#X#X#X#X#X#XT..             D.F.F.D.F.F.D.    ",
"                                          . K.#X+X#X_ * +X#X#X#X#X#X#XY.. E.#X#X#XXXXX#X#X#X#XT .                 F.F.D.F.      ",
"                                          . / #X#X#X.X. P.#X#X#X#X#X#XP.. R #X#X#Xq ^ #X+X#X.Xo                                 ",
"                                            r #X#X#X#X^ . XX#X#X#X#X#X+XT Y.#X#X_.. ) #X#X#X/ .                                 ",
"                                            q #X#X#X#XoX* P #X@X#X#X#X#X#X#X#X#X_.. '.#X#X+X= .                                 ",
"                                      . . . r +X#X#X].U.) . I.#X#X#X#X#X#X#X#X#X#X.X#X#X#X#XL                                   ",
"                                    . q ^ ) * = XX#Xb . #.s . W.#X+X#X#X#X#X#X#X#X#X#X#X#X#X                                    ",
"                                  . ^ XX#X#XXX= L.#XR + =.&.: . _.#X#X#X#X#X#X#X#X#X#X#X#XY.                                    ",
"                                . R +Xq ).q XXR.w E - + i -.@.~ {.+X#X#X#X#X#X#X#X#X#X#X#Xr                                     ",
"                                o ].#XT.XXL.oX+X= { *.;.a g v #XXXo ^ #X#X#X#X#X#X#X#X#X+X=                                     ",
"                                P #X#X#X#X#XK.T.Y ] 3.{ h + L.' 2 . . w Y.+X#X#X#X#X#X#XK..                                     ",
"                              . _ #X+X#X#X#X^ I.( k 3.O.X.o.3 p { &.O.+ . 4 ) E.XXXX).T . .                                     ",
"                              . I.#X#X#X#X#X#X#X! } 3.=.i $.i . . : %.%...- . . . o . . .                                       ",
"                                ).#X#X#X#X#X#X#XW . h &.o.h e T.R.K > -.-.=.: . . . . .                                         ",
"                                _.#X#X#X#X#X#X#XR ` Q f %.= {.#X#X+X4 , | -.s .                                                 ",
"                                T #X_ r XX#X#X#X+X+X@Xc p T #X+X+X#X) . . : #.O                                                 ",
"          .   .                 q #XP.. E.#X#X#X#X#X#X).. K.#X+X#X#XT.Y.u i a h .                                               ",
"          .   .                 . K.#X+X+X#X#X#X#X#X#X#Xq I.#X#X#X#X#X#XU :.s [ :                         .                     ",
"                                  . K.#X#X#X#X#X#X#X#X#XL P.#X#X#X#X#X#XU ] O.-.s                           .                   ",
"        C M.M.7..                   . q _ K._ +X#X#X#X#X/ R #X#X#X#X#X#XI g d -.;                     . 8                       ",
"      . r.M.b.M.a.&                   . . . w #X#X#X#X#XT.* #X#X#X#X#X@XJ o.: > .                   % <.p.m.x.5                 ",
"    . <.B.l.v.l.V.7.                        . J.#X#X#X#X#Xw R #X#X#X#X#X4.] . .                   . q.V.m.v.m.2..               ",
"    5 b.m.v.v.v.m.s..                         . R.#X#X#X#X).. w R.].W.! X s .                     & l.v.v.v.v.B.N               ",
"    S N.v.v.m.v.M.q.9 V                       . w #X#X#X#X#X).q . . o # $.| .                     & c.v.v.v.v.M.y..             ",
"    <.M.l.m.j.j.B.6.B 5.                        . K.#X#X#X#X#X#X'.[.+Xc } d .                   $ 1 9.m.v.m.v.m.g.$             ",
"  . 6.B.l.N.<.0.B.g.7 9                           4 +X#X#X#X#X#X#X#X#X`.y .                 . G z i.x 0.v.w.v.M.y.. .           ",
"  . ,.M.v.m.g.k.v.N.6..                           . Y.#X#X#X#X#X#X#X#X#XXX=                 X z.c.F < 2.h.<.m.m.0.G D .         ",
"X <.y.m.v.v.m.m.v.m.z.<                             L #X#X#X#X#X#X#X#X#XXXq                   Z 6.M.j.v.v.m.m.v.m.V.u..         ",
"  u.B.v.v.v.v.v.v.v.m.n                             . ).#X#X#X#X#X#X#X#X+X^                   . G M.v.v.v.v.v.v.b.M.C           ",
"  N m.v.v.v.v.v.v.v.m.m                               ^ #X#X#X#X#X#X#X#X#X/                   . y.M.v.v.v.v.v.v.m.x.5           ",
"  6 v.m.v.v.v.m.v.v.m.0                               q XX#X#X#X#X#X#X#X#X) .                 . a.M.v.v.v.v.v.v.M.<.            ",
"  z M.x.b.b.c.b.v.m.6..                               . R.#X@X#X#X#X#X#X#XY..                   w.M.v.v.m.m.v.l.M.m             ",
"  $ h.B.N.M.N.N.V.8.. . .                               R.{.].'..X.X].].].t .                   N B.m.c.f.j.M.V.j.<             ",
". . < Z ,.,.G D n X . .                               . . . . . . . . . . . .                   . Z v.m . . n <.5 .             ",
". . . . . . . . . .                                         . . . . . . . .                   . . .     . . . .                 "
};
