/* XPM */
static char *_44178efe51745ce989f9c14a4e153a6bhCswgP31Y1qwKn6[] = {
/* columns rows colors chars-per-pixel */
"64 64 74 1 ",
"  c #70A527",
". c #73A62D",
"X c #76A92F",
"o c #77A931",
"O c #7AAB35",
"+ c #7EAD3C",
"@ c #7FB13A",
"# c #80AF3F",
"$ c #81B13F",
"% c #83B142",
"& c #88B747",
"* c #8BBD46",
"= c #89B44D",
"- c #8EBE4B",
"; c #90BF4E",
": c #8DB653",
"> c #8FBC52",
", c #91BF52",
"< c #92BA5B",
"1 c #96BC62",
"2 c #91C04F",
"3 c #92C151",
"4 c #96C358",
"5 c #98C55B",
"6 c #9CCA5C",
"7 c #9CC662",
"8 c #9FCF60",
"9 c #9BC069",
"0 c #9FC270",
"q c #A2CF64",
"w c #A2C96C",
"e c #A3D066",
"r c #A5D269",
"t c #A8D46D",
"y c #A2C374",
"u c #A6CB73",
"i c #A9C77E",
"p c #ABCE7A",
"a c #A9D074",
"s c #ACC983",
"d c #AFCA89",
"f c #AFD081",
"g c #B1D285",
"h c #B5D38A",
"j c #B8D58F",
"k c #B4CE90",
"l c #B9D594",
"z c #BCD993",
"x c #BBD399",
"c c #BFD4A1",
"v c #C1DE9A",
"b c #C1D6A4",
"n c #C4DBA4",
"m c #C7DAAC",
"M c #C8DDAB",
"N c #CADCB1",
"B c #D0DFBC",
"V c #CEE0B3",
"C c #D3E3BC",
"Z c #D7E5C3",
"A c #D8E4C7",
"S c #DAE6C9",
"D c #DCE8CB",
"F c #DFE9D1",
"G c #E1E9D5",
"H c #E6EDDC",
"J c #E9EEE0",
"K c #EDF1E7",
"L c #EEF1E9",
"P c #F1F3EE",
"I c #FFF5F5F5",
"U c #F7F6F9",
"Y c #F9F7FC",
"T c #FBF8FE",
/* pixels */
"IIIIIIIIIIIIIIIIIIIIIIIIIIIIIIIIIIIIIIIIIIIIIIIIIIIIIIIIIIIIIIII",
"IIIIIIIIIIIIIIIIIIIIIIIIIIIIIIIIIIIIIIIIIIIIIIIIIIIIIIIIIIIIIIII",
"IIIIIIIIIIIIIIIIIIIIIIIIIIIIIIIIIIIIIIIIIIIIIIIIIIIIIIIIIIIIIIII",
"IIIIIIIIIIIIIIIIIIIIIIIIIIIIIIIIIIIIIIIIIIIIIIIIIIIIIIIIIIIIIIII",
"IIIIIIIIIIIIIIIIIIIIIIIIIIIIIIIIIIIIIIIIIIIIIIIIIIIIIIIIIIIIIIII",
"IIIIIIIIIIIIIIIIIIIIIIIIIIIIIIIIIIIIIIIIIIIIIIIIIIIIIIIIIIIIIIII",
"IIIIIIIIIIIIIIIIIIIIIIIIIIIIIIIIIIIIIIIIIIIIIIIIIIIIIIIIIIIIIIII",
"IIIIIIIIIIIIIIIIIIIIIIIIIIIIIIIIIIIIIIIIIIIIIIIIIIIIIIIIIIIIIIII",
"IIIIIIIIIIIIIIIIIIIIIIIIIIIIIIIIIIIIIIIIIIIIIIIIIIIIIIIIIIIIIIII",
"IIIIIIIIIIIIIIIIIIIIIIIIIIIIIIIIIIIIIIIIIIIIIIIIIIIIIIIIIIIIIIII",
"IIIIIIIIIIIIIIIIIIIIIIIIIIIIIIIIIIIIIIIIIIIIIIIIIIIIIIIIIIIIIIII",
"IIIIIIIIIIIIIIIIIIIIIIIIIIIIIIIIIIIIIIIIIIIIIIIIIIIIIIIIIIIIIIII",
"IIIIIIIIIIIIIIIIIIIIIIIIIIIIIIIIIIIIIIIIIIIIIIIIIIIIIIIIIIIIIIII",
"IIIIIIIIIIIIIIIIIIIIIIIIIIIIIIIIIUIIIIIIIIIIPIIIIIIIIIIIIIIIIIII",
"IUIIIIIIIIIIIIIIIIIIIIIIIIIIIIIIIIIIIPIYYYITTTIPIUIIIIIIIIIIIIII",
"IIIIIIIIIIIIIIIUIIIIIIIIIUIIIIIIIIIIITIDvgppvGITIUIIIIIIIIIUIIII",
"IIIIIIIIIIIIIIIIIIIIIIIIIIIIIIIIIIPTPVw;**;**;rMIYIIIIIIIIIIIIII",
"IIIIIIUIIIIIIIIIIUIIIIIIPIIIPIIIIITGw*23332322;2wAYIIIIIIIIIIIII",
"IIIIIIIIIIIIIIIIIIIIIIIITUITUIPIPTZ;*33333332333--vUIIIIIIIIIIII",
"IIIUIIIIIIIIIIIIIIIIIIUIb1<sHTTUTH32323333333332;;$vYIPIIIIIIIII",
"IIIIIIUIIIIIIIIIIIIIIIPyo++.=Mzpgw*3233333333333;33*MYIIUIIIIIII",
"IIIIIIIIIIIIIIIIIIIIII0o%$$-;****;32333333333333333;;DYIIIIIIIII",
"IIIIIIIIIIIIIIIIIPIPTbo%#%;3333433333333333333333;34-uIIIIIIIIII",
"IUUIIIIIIIIIIIPITTUUL=#%%;3,33233333323333332333333;3*CYIIIIIIII",
"IIIIIIIIIIIIIUYPGAGUxo%#-3,33333333323333333333332333*pTIIIIIIII",
"IIIIIIIIIIIITGi=#o#:%#%%,;33323333333333332333333333324HIIIIIIII",
"IUIIIIIIIIIUkOO&;,:####-323333333333323333333333333333*ZUIIIIIII",
"IIIIUIIPIITpX4qtttte5%#,323333333333333333333333333333*CTPIIIIII",
"IIIIIIIIPTv#wtrrerqttq3;332233323233333333333333333233;gKYIIIIII",
"IIIIIUIIYH,etqreertrrqt5;2,43;2333333333333333333333322;3BYIIIII",
"IIIIIIIITx6tqtqrrtrqtqrt66qqq6,,3233333333333333333333,3;*CTIIII",
"IIIIIIPIIaerterrrrrrqtqrtrrrrrq;2333332323333333233333333;5LIIII",
"IIIIIIIYZerrerrrrrrrrerrrererrr623333333333333333333333323*VTPII",
"IIIIPUId2rrrrrrrrrrrrrrrrrrrrrre333333333332333233333333332hTIII",
"IIIIIP9.3rrrtetrrrrrrrrrrrrrrere423333323333333333323332332uIIII",
"IIIIYco#7rerrrrrrrrrrrrrrrrrrrrr323333333332333333333333332qIIII",
"IIIII<+#5trrrrrrrrrrrrrrrrrrerr822323333333333323333333233*pUIII",
"IIIUF+#+5rrrrrrrrrrrrrrrrrrrrrrre6232333333333333333333333*VTIII",
"IIIUZo#3rrertrrrrrrrrrerrrrrrrretq3333333333333332332333324LIIII",
"IIIYNo>reerrrrrrrrrrrrrrrrrrrrrrte332333332333333333333333-jUPII",
"IIIYSO5rrrerrrrrrrrrrrrrrrrrrrereq3,33333333333333333333333*DYII",
"IIIYxO5rerrrrrrrrrrrrrrrrrrrrrrrtq3333333233333333333333333*hYII",
"IIYmO#5rrrtrrrrrrrrrrrrrrrrrrrrrte423;333233333333333333333-7PII",
"PUK=+>trrrrtrrrrrrtrtrtrrtrttrrtrte4,433343333433343333333434JII",
"ITc O688888888888888888e8888888888q3***********************&-JUI",
"IYNudvvvvvvvvvvvvvvvvvvvvvvvvvvvvvvzhhhhhhhhhhhhhhhhhhhhhhhhjLII",
"IIYTYYUYUUYYYYYYYYYYYUUYIYYYYYYYYUYUTUTTTUTUTUTUTUTTTYYUTTUYYIII",
"PIIPIPIIIIIPIIIPIIPIIIIIIIIIIIIIIIIIIIIPIIIIIIIIIIIIPIIIIIIIIIII",
"IIIIIIIIIIIIPIIIIIIIIIIIIIIIIIIIIIIIIIIIIIIIIIIIIIIPIIIIIIIIIIII",
"IIIIIIIIIIIIIIIIIIIIIIIIIIIIIIIIIIIIIIIIIIIIIIIIIIIIIIIIIIIIIIII",
"IIIIIIIIIIIIIIIIIIIIIIIIIIIIIIIIIIIIIIIIIIIIIIIIIIIIIIIIIIIIIIII",
"IIIIIIIIIIIIIIIIIIIIIIIIIIIIIIIIIIIIIIIIIIIIIIIIIIIIIIIIIIIIIIII",
"IIIIIIIIIIIIIIIIIIIIIIIIIIIIIIIIIIIIIIIIIIIIIIIIIIIIIIIIIIIIIIII",
"IIIIIIIIIIIIIIIIIIIIIIIIIIIIIIIIIIIIIIIIIIIIIIIIIIIIIIIIIIIIIIII",
"IIIIIIIIIIIIIIIIIIIIIIIIIIIIIIIIIIIIIIIIIIIIIIIIIIIIIIIIIIIIIIII",
"IIIIIIIIIIIIIIIIIIIIIIIIIIIIIIIIIIIIIIIIIIIIIIIIIIIIIIIIIIIIIIII",
"IIIIIIIIIIIIIIIIIIIIIIIIIIIIIIIIIIIIIIIIIIIIIIIIIIIIIIIIIIIIIIII",
"IIIIIIIIIIIIIIIIIIIIIIIIIIIIIIIIIIIIIIIIIIIIIIIIIIIIIIIIIIIIIIII",
"IIIIIIIIIIIIIIIIIIIIIIIIIIIIIIIIIIIIIIIIIIIIIIIIIIIIIIIIIIIIIIII",
"IIIIIIIIIIIIIIIIIIIIIIIIIIIIIIIIIIIIIIIIIIIIIIIIIIIIIIIIIIIIIIII",
"IIIIIIIIIIIIIIIIIIIIIIIIIIIIIIIIIIIIIIIIIIIIIIIIIIIIIIIIIIIIIIII",
"IIIIIIIIIIIIIIIIIIIIIIIIIIIIIIIIIIIIIIIIIIIIIIIIIIIIIIIIIIIIIIII",
"IIIIIIIIIIIIIIIIIIIIIIIIIIIIIIIIIIIIIIIIIIIIIIIIIIIIIIIIIIIIIIII",
"IIIIIIIIIIIIIIIIIIIIIIIIIIIIIIIIIIIIIIIIIIIIIIIIIIIIIIIIIIIIIIII",
};
